:SAMPLES-PER-SECOND 30
:FULLY-SPECIFIED
:DEGREES
108
root  -22.93466733 38.19177883 42.20733342 0.4090051055 -0.8979036808 5.845290184
lowerback  7.249810219 -0.9985499382 -7.02971983
upperback  1.717409968 -1.824679971 1.000570059
thorax  -2.027260065 -0.8847690225 5.155370235
lowerneck  -13.24139977 5.418859959 -2.629810095
upperneck  26.80960083 7.848899841 1.838920236
head  10.59350014 3.543970108 2.100280046
lclavicle  0 -5.34481991e-014 2.981770104e-014
lhumerus  -17.88509941 -0.4202235639 86.8214035
lradius  0.003583191894 6.643666666e-007 33.7696991
lwrist  -1.645157397e-007 -3.533851896e-007 -0.8657411933
lhand  -5.505032044e-031 -15.8135004 33.60620117
lfingers  90 7.125020027 -90
lthumb  93.41605384 18.01962653 79.07819387
rclavicle  0 -5.34481991e-014 2.981770104e-014
rhumerus  -40.71179962 -20.99880028 -70.29499817
rradius  -1.296506525e-006 2.359789448e-007 40.0359993
rwrist  -2.281664457e-008 -8.593936229e-009 14.48740005
rhand  -1.345748685e-031 10.2737999 9.996669769
rfingers  -90 -7.125020027 -90
rthumb  -72.52445805 -22.91766803 -51.04506765
rfemur  -36.76210785 -1.450489879 14.71639919
rtibia  9.670418422e-007 1.119611625e-006 37.65652466
rfoot  2.556521167e-006 -9.169558525 -3.437902212
rtoes  2.336001174 19.8686595 -96.84438506
lfemur  5.424785614 -0.7337648273 -30.74669075
ltibia  -3.641206786e-005 2.004581745e-007 17.7365303
lfoot  -5.693161143e-007 -16.70431709 -1.237503767
ltoes  -5.298979543 -19.31302686 -105.6655569
109
root  -22.95577733 38.15822151 42.44755422 0.622189939 -0.7861343026 5.816559792
lowerback  7.233339787 -1.156970024 -6.917610168
upperback  1.608590007 -2.024499893 1.185770035
thorax  -2.100579977 -0.9790019989 5.30384016
lowerneck  -13.21749973 5.547510147 -2.489079952
upperneck  26.94470024 8.040049553 1.689399958
head  10.64840031 3.623650074 2.051700115
lclavicle  0 -5.34481991e-014 2.981770104e-014
lhumerus  -18.34420013 -0.42488572 87.01940155
lradius  0.003583191894 6.643666666e-007 33.65990067
lwrist  -1.645157397e-007 -3.533851896e-007 -0.9350627661
lhand  -5.505032044e-031 -15.8135004 33.60620117
lfingers  90 7.125020027 -90
lthumb  93.41605384 18.01962653 79.07819387
rclavicle  0 -5.34481991e-014 2.981770104e-014
rhumerus  -40.85210037 -20.92950058 -70.14099884
rradius  -1.296506525e-006 2.359789448e-007 40.38499832
rwrist  -2.281664457e-008 -8.593936229e-009 14.51869965
rhand  -1.345748685e-031 10.2737999 9.996669769
rfingers  -90 -7.125020027 -90
rthumb  -72.52445805 -22.91766803 -51.04506765
rfemur  -36.98570633 -1.284569383 14.67540073
rtibia  9.670418422e-007 1.119611625e-006 37.71031952
rfoot  2.556521167e-006 -9.139010429 -3.631081343
rtoes  2.336001174 19.8686595 -96.84438506
lfemur  5.629110336 -0.7515818477 -30.65078354
ltibia  -3.641206786e-005 2.004581745e-007 17.64855385
lfoot  -5.693161143e-007 -16.79532242 -1.348646045
ltoes  -5.298979543 -19.31302686 -105.6655569
110
root  -22.96155494 38.13066558 42.682888 0.9014400244 -0.6850658059 5.804039955
lowerback  7.145579815 -1.329859972 -6.763150215
upperback  1.549880028 -2.233730078 1.369510055
thorax  -2.081700087 -1.083240032 5.423709869
lowerneck  -13.39719963 5.662580013 -2.413409948
upperneck  27.10280037 8.233380318 1.54975009
head  10.74909973 3.696199894 2.026629925
lclavicle  0 -5.34481991e-014 2.981770104e-014
lhumerus  -18.45249939 -0.6959668994 87.22730255
lradius  0.003583191894 6.643666666e-007 33.19800186
lwrist  -1.645157397e-007 -3.533851896e-007 -0.8146281242
lhand  -5.505032044e-031 -15.8135004 33.60620117
lfingers  90 7.125020027 -90
lthumb  93.41605384 18.01962653 79.07819387
rclavicle  0 -5.34481991e-014 2.981770104e-014
rhumerus  -40.75709915 -21.00450134 -69.95770264
rradius  -1.296506525e-006 2.359789448e-007 40.5306015
rwrist  -2.281664457e-008 -8.593936229e-009 14.71720028
rhand  -1.345748685e-031 10.2737999 9.996669769
rfingers  -90 -7.125020027 -90
rthumb  -72.52445805 -22.91766803 -51.04506765
rfemur  -37.24880219 -1.251538515 14.60690403
rtibia  9.670418422e-007 1.119611625e-006 37.84451675
rfoot  2.556521167e-006 -9.014610291 -3.686860085
rtoes  2.336001174 19.8686595 -96.84438506
lfemur  5.772228718 -0.870487988 -30.63228607
ltibia  -3.641206786e-005 2.004581745e-007 17.53763771
lfoot  -5.693161143e-007 -16.87981796 -1.385223746
ltoes  -5.298979543 -19.31302686 -105.6655569
111
root  -22.96244404 38.09644444 42.93444476 1.119229913 -0.529699564 6.038410187
lowerback  7.172589779 -1.470049977 -6.801509857
upperback  1.43227005 -2.426100016 1.452640057
thorax  -2.186439991 -1.171540022 5.551640034
lowerneck  -13.47109985 5.731760025 -2.187969923
upperneck  27.23769951 8.329090118 1.377790213
head  10.83230019 3.736660004 1.948899865
lclavicle  0 -5.34481991e-014 2.981770104e-014
lhumerus  -18.66930008 -1.197459579 87.41850281
lradius  0.003583191894 6.643666666e-007 32.77180099
lwrist  -1.645157397e-007 -3.533851896e-007 -0.9444617629
lhand  -5.505032044e-031 -15.8135004 33.60620117
lfingers  90 7.125020027 -90
lthumb  93.41605384 18.01962653 79.07819387
rclavicle  0 -5.34481991e-014 2.981770104e-014
rhumerus  -40.76900101 -21.29159927 -69.65869904
rradius  -1.296506525e-006 2.359789448e-007 40.45389938
rwrist  -2.281664457e-008 -8.593936229e-009 15.01010036
rhand  -1.345748685e-031 10.2737999 9.996669769
rfingers  -90 -7.125020027 -90
rthumb  -72.52445805 -22.91766803 -51.04506765
rfemur  -37.37169647 -1.421010375 14.29869747
rtibia  9.670418422e-007 1.119611625e-006 38.12419128
rfoot  2.556521167e-006 -8.973423004 -3.679680347
rtoes  2.336001174 19.8686595 -96.84438506
lfemur  6.084377766 -1.06274116 -30.91469574
ltibia  -3.641206786e-005 2.004581745e-007 17.33761597
lfoot  -5.693161143e-007 -16.86910439 -1.358081937
ltoes  -5.298979543 -19.31302686 -105.6655569
112
root  -22.97666655 38.06044511 43.21244307 1.213380098 -0.4220596254 6.188950062
lowerback  7.148310184 -1.572450042 -6.800720215
upperback  1.355489969 -2.560159922 1.550770044
thorax  -2.228859901 -1.234539986 5.665699959
lowerneck  -13.60070038 5.739079952 -2.035969973
upperneck  27.5366993 8.325619698 1.336520076
head  10.97999954 3.735859871 1.924409866
lclavicle  0 -5.34481991e-014 2.981770104e-014
lhumerus  -19.22470093 -1.154840112 87.54199982
lradius  0.003583191894 6.643666666e-007 32.72389984
lwrist  -1.645157397e-007 -3.533851896e-007 -2.333440065
lhand  -5.505032044e-031 -15.8135004 33.60620117
lfingers  90 7.125020027 -90
lthumb  93.41605384 18.01962653 79.07819387
rclavicle  0 -5.34481991e-014 2.981770104e-014
rhumerus  -40.85549927 -21.98399925 -69.15540314
rradius  -1.296506525e-006 2.359789448e-007 40.15950012
rwrist  -2.281664457e-008 -8.593936229e-009 15.71689987
rhand  -1.345748685e-031 10.2737999 9.996669769
rfingers  -90 -7.125020027 -90
rthumb  -72.52445805 -22.91766803 -51.04506765
rfemur  -37.36399841 -1.490840316 14.1079998
rtibia  9.670418422e-007 1.119611625e-006 38.60411072
rfoot  2.556521167e-006 -9.117930412 -3.671851158
rtoes  2.336001174 19.8686595 -96.84438506
lfemur  6.611911774 -1.177671671 -31.09229469
ltibia  -3.641206786e-005 2.004581745e-007 17.09371758
lfoot  -5.693161143e-007 -16.82621002 -1.140302181
ltoes  -5.298979543 -19.31302686 -105.6655569
